<?xml version="1.0" encoding="UTF-8"?>
<!DOCTYPE svg PUBLIC "-//W3C//DTD SVG 1.1//EN" "http://www.w3.org/Graphics/SVG/1.1/DTD/svg11.dtd">
<svg xmlns="http://www.w3.org/2000/svg" version="1.1" width="64px" height="64px" style="shape-rendering:geometricPrecision; text-rendering:geometricPrecision; image-rendering:optimizeQuality; fill-rule:evenodd; clip-rule:evenodd" xmlns:xlink="http://www.w3.org/1999/xlink">
<g><path style="opacity:0.981" fill="#131532" d="M 11.5,0.5 C 26.1667,0.5 40.8333,0.5 55.5,0.5C 55.6584,3.36094 54.9917,6.02761 53.5,8.5C 54.9917,10.9724 55.6584,13.6391 55.5,16.5C 52.1016,16.1796 48.7683,16.513 45.5,17.5C 50.1196,18.4933 54.7863,18.8266 59.5,18.5C 59.8143,21.9466 60.6476,25.2799 62,28.5C 62.6667,39.1667 62.6667,49.8333 62,60.5C 61.5,61 61,61.5 60.5,62C 41.1667,62.6667 21.8333,62.6667 2.5,62C 2,61.5 1.5,61 1,60.5C 0.333333,49.8333 0.333333,39.1667 1,28.5C 2.35242,25.2799 3.18575,21.9466 3.5,18.5C 8.21369,18.8266 12.8804,18.4933 17.5,17.5C 8.97705,17.129 5.81038,12.7957 8,4.5C 8.68972,2.64977 9.85639,1.31643 11.5,0.5 Z M 19.5,16.5 C 27.5277,16.169 35.5277,16.5023 43.5,17.5C 39.5,17.8333 35.5,18.1667 31.5,18.5C 27.107,18.4907 23.107,17.824 19.5,16.5 Z"/></g>
<g><path style="opacity:1" fill="#e29942" d="M 12.5,2.5 C 26.1829,2.16746 39.8496,2.50079 53.5,3.5C 40.1791,4.33271 26.8458,4.83271 13.5,5C 10.8333,7.33333 10.8333,9.66667 13.5,12C 26.8458,12.1673 40.1791,12.6673 53.5,13.5C 39.8455,14.6661 26.1788,14.8327 12.5,14C 8.54192,10.0923 8.54192,6.25893 12.5,2.5 Z"/></g>
<g><path style="opacity:1" fill="#e9e7e4" d="M 14.5,6.5 C 26.5,6.5 38.5,6.5 50.5,6.5C 50.5,7.83333 50.5,9.16667 50.5,10.5C 38.4954,10.6665 26.4954,10.4999 14.5,10C 13.3157,8.85453 13.3157,7.68787 14.5,6.5 Z"/></g>
<g><path style="opacity:1" fill="#e3e1e0" d="M 5.5,20.5 C 6.87344,20.3433 8.20677,20.51 9.5,21C 8.43961,23.7367 7.60628,26.57 7,29.5C 5.93348,31.2826 4.43348,31.7826 2.5,31C 4.04216,27.6662 5.04216,24.1662 5.5,20.5 Z"/></g>
<g><path style="opacity:1" fill="#cb8a41" d="M 11.5,20.5 C 12.5,20.5 13.5,20.5 14.5,20.5C 13.8857,24.1352 13.5524,27.8019 13.5,31.5C 11.712,31.7852 10.0453,31.4519 8.5,30.5C 9.50588,27.1375 10.5059,23.8041 11.5,20.5 Z"/></g>
<g><path style="opacity:1" fill="#dcdada" d="M 16.5,20.5 C 17.5,20.5 18.5,20.5 19.5,20.5C 19.6646,23.5184 19.498,26.5184 19,29.5C 17.951,31.1066 16.451,31.7733 14.5,31.5C 15.0599,27.8068 15.7265,24.1402 16.5,20.5 Z"/></g>
<g><path style="opacity:1" fill="#e19842" d="M 21.5,20.5 C 22.5,20.5 23.5,20.5 24.5,20.5C 24.5,24.1667 24.5,27.8333 24.5,31.5C 23.0222,31.762 21.6888,31.4287 20.5,30.5C 21.4173,27.2423 21.7507,23.909 21.5,20.5 Z"/></g>
<g><path style="opacity:1" fill="#e5e2e1" d="M 26.5,20.5 C 27.8333,20.5 29.1667,20.5 30.5,20.5C 30.5,24.1667 30.5,27.8333 30.5,31.5C 29.1667,31.5 27.8333,31.5 26.5,31.5C 26.5,27.8333 26.5,24.1667 26.5,20.5 Z"/></g>
<g><path style="opacity:1" fill="#d79141" d="M 32.5,20.5 C 33.8333,20.5 35.1667,20.5 36.5,20.5C 36.5,24.1667 36.5,27.8333 36.5,31.5C 35.1667,31.5 33.8333,31.5 32.5,31.5C 32.5,27.8333 32.5,24.1667 32.5,20.5 Z"/></g>
<g><path style="opacity:1" fill="#efece9" d="M 38.5,20.5 C 39.5,20.5 40.5,20.5 41.5,20.5C 41.2493,23.909 41.5827,27.2423 42.5,30.5C 41.3112,31.4287 39.9778,31.762 38.5,31.5C 38.5,27.8333 38.5,24.1667 38.5,20.5 Z"/></g>
<g><path style="opacity:1" fill="#d89342" d="M 43.5,20.5 C 44.5,20.5 45.5,20.5 46.5,20.5C 47.0078,24.1974 47.6745,27.8641 48.5,31.5C 47.1667,31.5 45.8333,31.5 44.5,31.5C 43.8857,27.8648 43.5524,24.1981 43.5,20.5 Z"/></g>
<g><path style="opacity:1" fill="#d8d6d7" d="M 48.5,20.5 C 49.8221,20.33 50.9887,20.6634 52,21.5C 52.679,24.5499 53.5123,27.5499 54.5,30.5C 52.9547,31.4519 51.288,31.7852 49.5,31.5C 49.4476,27.8019 49.1143,24.1352 48.5,20.5 Z"/></g>
<g><path style="opacity:1" fill="#d59141" d="M 53.5,21.5 C 54.5676,20.5655 55.901,20.2322 57.5,20.5C 57.9578,24.1662 58.9578,27.6662 60.5,31C 59.0563,31.7805 57.723,31.6139 56.5,30.5C 55.635,27.3381 54.635,24.3381 53.5,21.5 Z"/></g>
<g><path style="opacity:1" fill="#e0dfdd" d="M 2.5,33.5 C 3.97782,33.238 5.31116,33.5713 6.5,34.5C 4.53651,37.1939 3.20318,36.8606 2.5,33.5 Z"/></g>
<g><path style="opacity:1" fill="#d78330" d="M 8.5,33.5 C 9.97782,33.238 11.3112,33.5713 12.5,34.5C 10.5365,37.1939 9.20318,36.8606 8.5,33.5 Z"/></g>
<g><path style="opacity:1" fill="#e0dfdd" d="M 14.5,33.5 C 15.9778,33.238 17.3112,33.5713 18.5,34.5C 16.5365,37.1939 15.2032,36.8606 14.5,33.5 Z"/></g>
<g><path style="opacity:1" fill="#d78330" d="M 20.5,33.5 C 21.9778,33.238 23.3112,33.5713 24.5,34.5C 22.5365,37.1939 21.2032,36.8606 20.5,33.5 Z"/></g>
<g><path style="opacity:1" fill="#e0dfdd" d="M 26.5,33.5 C 27.9778,33.238 29.3112,33.5713 30.5,34.5C 28.5365,37.1939 27.2032,36.8606 26.5,33.5 Z"/></g>
<g><path style="opacity:1" fill="#d78330" d="M 32.5,33.5 C 33.9778,33.238 35.3112,33.5713 36.5,34.5C 34.5365,37.1939 33.2032,36.8606 32.5,33.5 Z"/></g>
<g><path style="opacity:1" fill="#e0dfdd" d="M 38.5,33.5 C 39.9778,33.238 41.3112,33.5713 42.5,34.5C 40.5365,37.1939 39.2032,36.8606 38.5,33.5 Z"/></g>
<g><path style="opacity:1" fill="#d78330" d="M 44.5,33.5 C 45.9778,33.238 47.3112,33.5713 48.5,34.5C 46.5365,37.1939 45.2032,36.8606 44.5,33.5 Z"/></g>
<g><path style="opacity:1" fill="#e0dfdd" d="M 50.5,33.5 C 51.9778,33.238 53.3112,33.5713 54.5,34.5C 52.5365,37.1939 51.2032,36.8606 50.5,33.5 Z"/></g>
<g><path style="opacity:1" fill="#d78330" d="M 56.5,33.5 C 57.9778,33.238 59.3112,33.5713 60.5,34.5C 58.5365,37.1939 57.2032,36.8606 56.5,33.5 Z"/></g>
<g><path style="opacity:1" fill="#d9d6d3" d="M 6.5,37.5 C 24.4589,38.1482 42.4589,38.4816 60.5,38.5C 60.8132,45.7546 60.4799,52.9213 59.5,60C 46.8377,60.4999 34.1711,60.6666 21.5,60.5C 21.5,54.5 21.5,48.5 21.5,42.5C 17.5,42.5 13.5,42.5 9.5,42.5C 9.5,48.5 9.5,54.5 9.5,60.5C 7.2075,60.7564 5.04083,60.4231 3,59.5C 2.50038,52.5079 2.33371,45.5079 2.5,38.5C 4.09903,38.7678 5.43236,38.4345 6.5,37.5 Z"/></g>
<g><path style="opacity:1" fill="#121535" d="M 24.5,40.5 C 35.8333,40.5 47.1667,40.5 58.5,40.5C 58.5,46.1667 58.5,51.8333 58.5,57.5C 47.1667,57.5 35.8333,57.5 24.5,57.5C 24.5,51.8333 24.5,46.1667 24.5,40.5 Z"/></g>
<g><path style="opacity:1" fill="#f5f2ee" d="M 26.5,42.5 C 36.5,42.5 46.5,42.5 56.5,42.5C 56.5,43.8333 56.5,45.1667 56.5,46.5C 51.4351,46.781 46.4351,46.4476 41.5,45.5C 38.9643,48.2677 37.631,51.6011 37.5,55.5C 36.5,55.5 35.5,55.5 34.5,55.5C 34.5,52.1667 34.5,48.8333 34.5,45.5C 31.8333,45.5 29.1667,45.5 26.5,45.5C 26.5,44.5 26.5,43.5 26.5,42.5 Z"/></g>
<g><path style="opacity:1" fill="#4ac3ed" d="M 11.5,44.5 C 12.5,44.5 13.5,44.5 14.5,44.5C 14.5,45.8333 14.5,47.1667 14.5,48.5C 13.5,48.5 12.5,48.5 11.5,48.5C 11.5,47.1667 11.5,45.8333 11.5,44.5 Z"/></g>
<g><path style="opacity:1" fill="#4ac3ed" d="M 16.5,44.5 C 17.5,44.5 18.5,44.5 19.5,44.5C 19.5,45.8333 19.5,47.1667 19.5,48.5C 18.5,48.5 17.5,48.5 16.5,48.5C 16.5,47.1667 16.5,45.8333 16.5,44.5 Z"/></g>
<g><path style="opacity:1" fill="#76cc79" d="M 26.5,47.5 C 28.5,47.5 30.5,47.5 32.5,47.5C 32.5,50.1667 32.5,52.8333 32.5,55.5C 30.5,55.5 28.5,55.5 26.5,55.5C 26.5,52.8333 26.5,50.1667 26.5,47.5 Z"/></g>
<g><path style="opacity:1" fill="#4ac3ed" d="M 46.5,48.5 C 47.7251,49.1522 48.3917,50.3189 48.5,52C 48.1667,53.1667 47.8333,54.3333 47.5,55.5C 46.5258,53.2573 46.1924,50.924 46.5,48.5 Z"/></g>
<g><path style="opacity:1" fill="#444a6d" d="M 50.5,48.5 C 51.7251,49.1522 52.3917,50.3189 52.5,52C 52.1667,53.1667 51.8333,54.3333 51.5,55.5C 50.5258,53.2573 50.1924,50.924 50.5,48.5 Z"/></g>
<g><path style="opacity:1" fill="#4ac3ed" d="M 54.5,48.5 C 55.7251,49.1522 56.3917,50.3189 56.5,52C 56.1667,53.1667 55.8333,54.3333 55.5,55.5C 54.5258,53.2573 54.1924,50.924 54.5,48.5 Z"/></g>
<g><path style="opacity:1" fill="#4ac3ed" d="M 11.5,50.5 C 12.5,50.5 13.5,50.5 14.5,50.5C 14.5,51.8333 14.5,53.1667 14.5,54.5C 13.5,54.5 12.5,54.5 11.5,54.5C 11.5,53.1667 11.5,51.8333 11.5,50.5 Z"/></g>
<g><path style="opacity:1" fill="#4ac3ed" d="M 16.5,50.5 C 17.5,50.5 18.5,50.5 19.5,50.5C 19.5,51.8333 19.5,53.1667 19.5,54.5C 18.5,54.5 17.5,54.5 16.5,54.5C 16.5,53.1667 16.5,51.8333 16.5,50.5 Z"/></g>
<g><path style="opacity:1" fill="#4ac3ed" d="M 11.5,56.5 C 12.5,56.5 13.5,56.5 14.5,56.5C 14.5,57.8333 14.5,59.1667 14.5,60.5C 13.5,60.5 12.5,60.5 11.5,60.5C 11.5,59.1667 11.5,57.8333 11.5,56.5 Z"/></g>
<g><path style="opacity:1" fill="#4ac3ed" d="M 16.5,56.5 C 17.5,56.5 18.5,56.5 19.5,56.5C 19.5,57.8333 19.5,59.1667 19.5,60.5C 18.5,60.5 17.5,60.5 16.5,60.5C 16.5,59.1667 16.5,57.8333 16.5,56.5 Z"/></g>
</svg>
